<svg xmlns="http://www.w3.org/2000/svg" viewBox="0 0 900 1100" role="img" aria-label="Aretes Orquideas Rosadas"><defs><filter id="s" x="-20%" y="-20%" width="140%" height="140%"><feDropShadow dx="0" dy="12" stdDeviation="10" flood-color="#000" flood-opacity=".18"/></filter><pattern id="dots" width="46" height="46" patternUnits="userSpaceOnUse"><circle cx="9" cy="9" r="5" fill="#000" opacity=".08"/></pattern></defs><rect width="900" height="1100" rx="64" fill="#fffaec"/><rect width="900" height="1100" fill="url(#dots)"/><path d="M106 215C52 109 146 40 264 75c83 25 120 0 190-36 126-65 285 25 284 168-1 100 106 122 101 252-7 178-187 180-227 298-49 143-239 151-319 38-55-78-114-39-190-93C-27 608 10 403 111 353c53-26 28-74-5-138Z" fill="#b9f271" stroke="#111" stroke-width="9" filter="url(#s)"/><circle cx="315" cy="415" r="108" fill="#7ad7ff" stroke="#111" stroke-width="8"/><circle cx="585" cy="415" r="108" fill="#7ad7ff" stroke="#111" stroke-width="8"/><circle cx="315" cy="415" r="28" fill="#111"/><circle cx="585" cy="415" r="28" fill="#111"/><path d="M360 560c55 54 141 54 196 0" fill="none" stroke="#111" stroke-width="13" stroke-linecap="round"/><path d="M161 801l78-25 38-73 38 73 78 25-78 25-38 73-38-73-78-25Z" fill="#ff66c4" stroke="#111" stroke-width="7"/><path d="M626 162l43 93 102 14-73 73 17 101-89-47-90 47 18-101-73-73 101-14 44-93Z" fill="#fff896" stroke="#111" stroke-width="7"/><text x="450" y="984" text-anchor="middle" font-family="Arial Rounded MT Bold, Arial, sans-serif" font-size="54" font-weight="700" fill="#111">Aretes Orquideas Rosadas</text></svg>