<svg xmlns="http://www.w3.org/2000/svg" viewBox="0 0 600 600" role="img" aria-label="Sapito sticker">
  <defs>
    <filter id="shadow" x="-20%" y="-20%" width="140%" height="140%">
      <feDropShadow dx="10" dy="12" stdDeviation="0" flood-color="#16110f" flood-opacity="1"/>
    </filter>
    <pattern id="paperDots" width="34" height="34" patternUnits="userSpaceOnUse">
      <circle cx="7" cy="7" r="3" fill="#16110f" opacity=".08"/>
    </pattern>
  </defs>
  <rect x="44" y="42" width="512" height="512" rx="88" fill="#fff9ea" stroke="#16110f" stroke-width="18" filter="url(#shadow)"/>
  <rect x="62" y="60" width="476" height="476" rx="72" fill="url(#paperDots)" opacity=".8"/>
  <path d="M128 330c0-93 73-165 172-165s172 72 172 165c0 88-74 152-172 152s-172-64-172-152Z" fill="#91ff57" stroke="#16110f" stroke-width="16"/>
  <circle cx="208" cy="198" r="67" fill="#91ff57" stroke="#16110f" stroke-width="16"/>
  <circle cx="392" cy="198" r="67" fill="#91ff57" stroke="#16110f" stroke-width="16"/>
  <circle cx="210" cy="206" r="34" fill="#fffdf4" stroke="#16110f" stroke-width="12"/>
  <circle cx="390" cy="206" r="34" fill="#fffdf4" stroke="#16110f" stroke-width="12"/>
  <ellipse cx="222" cy="206" rx="15" ry="25" fill="#16110f"/>
  <ellipse cx="402" cy="206" rx="15" ry="25" fill="#16110f"/>
  <circle cx="159" cy="333" r="36" fill="#ff72bd" stroke="#16110f" stroke-width="10"/>
  <circle cx="441" cy="333" r="36" fill="#ff72bd" stroke="#16110f" stroke-width="10"/>
  <path d="M240 348c22 25 37 25 60 0 23 25 38 25 60 0" fill="none" stroke="#16110f" stroke-width="14" stroke-linecap="round" stroke-linejoin="round"/>
  <path d="M300 284c-30-45-94-15-74 34 11 28 49 48 74 77 25-29 63-49 74-77 20-49-44-79-74-34Z" fill="#ff72bd" stroke="#16110f" stroke-width="12" stroke-linejoin="round"/>
  <path d="M78 111l46-15 23-43 23 43 47 15-47 16-23 43-23-43-46-16Z" fill="#fff27a" stroke="#16110f" stroke-width="9"/>
  <path d="M438 466l34-11 17-32 17 32 34 11-34 12-17 32-17-32-34-12Z" fill="#ff72bd" stroke="#16110f" stroke-width="8"/>
</svg>
